<svg width="24" height="24" viewBox="0 0 24 24" xmlns="http://www.w3.org/2000/svg" fill="currentColor">
  <path fill-rule="evenodd" clip-rule="evenodd" d="M3 3.5C3 2.67157 3.67157 2 4.5 2H19.5C20.3284 2 21 2.67157 21 3.5V20.5C21 21.3284 20.3284 22 19.5 22H4.5C3.67157 22 3 21.3284 3 20.5V3.5ZM4.5 3.5H19.5V20.5H4.5V3.5Z"/>
  <path fill-rule="evenodd" clip-rule="evenodd" d="M9.78 6.97a.75.75 0 0 1 0 1.06l-2.5 2.5a.75.75 0 0 1-1.06 0l-1.25-1.25a.75.75 0 1 1 1.06-1.06l.72.72 1.97-1.97a.75.75 0 0 1 1.06 0ZM11 8.25a.75.75 0 0 1 .75-.75h6a.75.75 0 0 1 0 1.5h-6a.75.75 0 0 1-.75-.75Z"/>
  <path fill-rule="evenodd" clip-rule="evenodd" d="M9.78 13.22a.75.75 0 0 1 0 1.06l-2.5 2.5a.75.75 0 0 1-1.06 0l-1.25-1.25a.75.75 0 1 1 1.06-1.06l.72.72 1.97-1.97a.75.75 0 0 1 1.06 0ZM11 14.5a.75.75 0 0 1 .75-.75h6a.75.75 0 0 1 0 1.5h-6a.75.75 0 0 1-.75-.75Z"/>
</svg>
